<svg width="343" height="341" viewBox="0 0 343 341" fill="none" xmlns="http://www.w3.org/2000/svg">
<path d="M158.362 27.0002V6.28019H154.662V1.76609H163.468V27.0002H158.362Z" fill="#777777"/>
<path d="M167.843 27.0002V23.1522L175.391 14.6792C176.526 13.4212 177.401 12.2865 178.018 11.2752C178.659 10.2638 178.98 9.27719 178.98 8.31519C178.98 7.47649 178.709 6.78579 178.166 6.24309C177.648 5.70049 176.933 5.42919 176.02 5.42919C175.033 5.42919 174.256 5.77449 173.689 6.46519C173.146 7.15579 172.875 8.04379 172.875 9.12919H167.695C167.744 6.73649 168.484 4.77549 169.915 3.24609C171.346 1.71679 173.418 0.952087 176.131 0.952087C178.622 0.952087 180.596 1.61809 182.051 2.95009C183.531 4.28209 184.271 5.99649 184.271 8.09309C184.271 9.67179 183.839 11.1888 182.976 12.6441C182.137 14.0748 180.731 15.8138 178.758 17.8612L174.429 22.4862H184.641V27.0002H167.843Z" fill="#777777"/>
<path d="M1.044 176.664H5.904C6.312 178.584 7.464 179.544 9.36 179.544C10.248 179.544 10.992 179.304 11.592 178.824C12.216 178.344 12.684 177.672 12.996 176.808C13.308 175.944 13.536 175.164 13.68 174.468C13.824 173.748 13.932 172.92 14.004 171.984C12.636 173.928 10.836 174.9 8.604 174.9C6.276 174.9 4.356 174.12 2.844 172.56C1.356 171 0.612 169.008 0.612 166.584C0.612 164.016 1.476 161.88 3.204 160.176C4.932 158.448 7.092 157.584 9.684 157.584C11.364 157.584 12.828 157.944 14.076 158.664C15.348 159.36 16.332 160.308 17.028 161.508C17.724 162.708 18.24 164.004 18.576 165.396C18.912 166.788 19.08 168.276 19.08 169.86C19.08 171.492 18.912 173.064 18.576 174.576C18.24 176.088 17.712 177.528 16.992 178.896C16.296 180.264 15.288 181.368 13.968 182.208C12.648 183.024 11.112 183.432 9.36 183.432C7.056 183.432 5.16 182.82 3.672 181.596C2.184 180.372 1.308 178.728 1.044 176.664ZM9.576 161.796C8.448 161.796 7.5 162.24 6.732 163.128C5.988 163.992 5.616 165.084 5.616 166.404C5.616 167.748 5.988 168.852 6.732 169.716C7.476 170.58 8.436 171.012 9.612 171.012C10.764 171.012 11.712 170.58 12.456 169.716C13.224 168.852 13.608 167.76 13.608 166.44C13.608 165.12 13.224 164.016 12.456 163.128C11.688 162.24 10.728 161.796 9.576 161.796Z" fill="#777777"/>
<path d="M178.864 321.352H174.004C173.524 319.456 172.396 318.508 170.62 318.508C167.812 318.508 166.216 321.004 165.832 325.996C167.224 324.1 169.096 323.152 171.448 323.152C173.752 323.152 175.636 323.932 177.1 325.492C178.588 327.052 179.332 329.044 179.332 331.468C179.356 334.084 178.516 336.232 176.812 337.912C175.132 339.592 172.984 340.432 170.368 340.432C167.392 340.432 165.064 339.34 163.384 337.156C161.704 334.948 160.864 331.876 160.864 327.94C160.864 323.788 161.74 320.536 163.492 318.184C165.244 315.808 167.644 314.62 170.692 314.62C172.972 314.62 174.82 315.208 176.236 316.384C177.676 317.56 178.552 319.216 178.864 321.352ZM170.26 326.968C169.108 326.968 168.16 327.412 167.416 328.3C166.672 329.188 166.3 330.304 166.3 331.648C166.3 333.016 166.672 334.132 167.416 334.996C168.16 335.86 169.12 336.292 170.296 336.292C171.472 336.292 172.444 335.848 173.212 334.96C173.98 334.072 174.364 332.956 174.364 331.612C174.364 330.268 173.98 329.164 173.212 328.3C172.444 327.412 171.46 326.968 170.26 326.968Z" fill="#777777"/>
<path d="M324.152 166.044C324.248 163.428 325.064 161.376 326.6 159.888C328.136 158.376 330.224 157.62 332.864 157.62C335.36 157.62 337.376 158.268 338.912 159.564C340.472 160.836 341.252 162.492 341.252 164.532C341.252 165.756 340.928 166.824 340.28 167.736C339.656 168.624 338.804 169.212 337.724 169.5C339.116 169.836 340.208 170.52 341 171.552C341.792 172.56 342.188 173.808 342.188 175.296C342.188 177.696 341.312 179.664 339.56 181.2C337.832 182.712 335.588 183.468 332.828 183.468C329.972 183.468 327.704 182.676 326.024 181.092C324.344 179.508 323.504 177.372 323.504 174.684V174.324H328.436C328.46 175.884 328.832 177.084 329.552 177.924C330.296 178.74 331.352 179.148 332.72 179.148C333.968 179.148 334.976 178.8 335.744 178.104C336.512 177.384 336.896 176.46 336.896 175.332C336.896 174.012 336.464 173.064 335.6 172.488C334.76 171.888 333.668 171.588 332.324 171.588C331.82 171.588 331.4 171.6 331.064 171.624V168.024C331.328 168.048 331.616 168.06 331.928 168.06C334.856 168.06 336.32 167.004 336.32 164.892C336.32 163.932 335.996 163.164 335.348 162.588C334.724 162.012 333.884 161.724 332.828 161.724C331.628 161.724 330.692 162.096 330.02 162.84C329.372 163.584 329.036 164.652 329.012 166.044H324.152Z" fill="#777777"/>
<path d="M247.723 37.2139L255.723 24.2139M93.2775 37.2139L85.2775 24.2139M247.723 305.786L255.723 318.786M93.2775 305.786L85.2775 318.786M318.214 257.277L305.214 249.277M22.7861 257.277L35.7861 249.277M318.214 85.7225L305.214 93.7225M22.7861 85.7225L35.7861 93.7225" stroke="#777777" stroke-width="3"/>
</svg>
